<svg version="1.1" viewBox="0.0 0.0 200.0 42.0" fill="none" stroke="none" stroke-linecap="square" stroke-miterlimit="10" xmlns:xlink="http://www.w3.org/1999/xlink" xmlns="http://www.w3.org/2000/svg"><clipPath id="p.0"><path d="m0 0l200.0 0l0 42.0l-200.0 0l0 -42.0z" clip-rule="nonzero"/></clipPath><g clip-path="url(#p.0)"><path fill="#ffffff" d="m0 0l200.0 0l0 42.0l-200.0 0z" fill-rule="evenodd"/><defs><radialGradient id="p.1" gradientUnits="userSpaceOnUse" gradientTransform="matrix(10.145082821869835 0.0 0.0 10.145082821869835 0.0 0.0)" spreadMethod="pad" cx="9.856991978855925" cy="2.069968315559744" fx="9.856991978855925" fy="2.069968315559744" r="10.145082473754883"><stop offset="0.0" stop-color="#fff6db"/><stop offset="1.0" stop-color="#fad25c"/></radialGradient></defs><path fill="url(#p.1)" d="m-0.7559055 -0.007874016l201.51181 0l0 42.015747l-201.51181 0z" fill-rule="evenodd"/><path fill="#000000" fill-opacity="0.0" d="m1.2283465 1.6141732l197.5433 0l0 38.771652l-197.5433 0z" fill-rule="evenodd"/><path fill="#000000" d="m16.478346 24.474174l1.125 -0.1875l0 -5.125l-2.749999 0l0 -1.0l2.749999 0l0 -2.0625l-0.875 0q-0.4375 0.8125 -0.87499905 1.3125l-1.0 -0.625q1.187499 -1.437501 1.812499 -3.500001l1.125 0.25q0.1875 0.125 -0.125 0.375q-0.125 0.5 -0.5 1.1875l2.9375 0l0 1.000001l-1.4375 0l0 2.0625l2.125 0l0 1.0l-2.125 0l0 1.6875l1.6875 0l0 1.0l-1.6875 0l0 2.25l2.0625 -0.4375l0 1.0l-5.624999 1.3125q-0.1875 0.4375 -0.375 0.1875l-0.3125 -1.375l1.0 -0.125l0 -4.5625l0.99999905 0q0.5 0.0625 0.0625 0.375l0 4.0zm-2.687499 3.0l-1.25 0l0 -6.625q-0.5625 0.6875 -1.125 1.125l-0.5625 -1.25q1.875 -1.625 3.0 -4.3125l1.0625 0.75q0.25 0.25 -0.1875 0.3125q-0.3125 0.6875 -0.9375 1.75l0 8.25zm0.75 -13.250001q-1.25 2.062501 -2.75 3.187501l-0.75 -1.125q1.4375 -0.93750095 2.625 -3.187501l1.0 0.8125q0.4375 0.25 -0.125 0.3125zm10.499999 9.625001q0 1.0 -1.0 1.0l-0.75 0l-0.3125 -1.1875l0.5625 0q0.25 0 0.25 -0.25l0 -7.750001l-1.375 0l0 11.687501l-1.25 0l0 -12.687501l3.875 0l0 9.187501zm14.562502 2.875q-2.1875 -1.375 -3.3125 -2.875l1.0 -0.8125q1.25 1.375 3.125 2.4375l-0.8125 1.25zm-11.500002 -0.75q1.4375 -0.875 2.9375 -2.75l1.0625019 0.625q0.375 0.25 -0.1875019 0.375q-1.375 1.8125 -3.125 2.9375l-0.6875 -1.1875zm-0.9375 -4.8125q4.937502 -1.625 6.625002 -4.625l1.3125 0.3125q0.3125 0.0625 -0.125 0.375q1.8125 2.25 6.375 3.5625l-0.375 1.25q-4.0625 -1.0 -6.75 -4.0625q-1.6875 2.0625 -4.250002 3.4375l3.625002 0l0 -1.8125l1.1875 0q0.5 0.0625 0.0625 0.375l0 1.4375l3.6875 0l0 1.1875l-3.6875 0l0 4.625l-1.25 0l0 -4.625l-3.750002 0l0 -1.125q-0.9375 0.5625 -2.1875 1.0l-0.5 -1.3125zm5.062502 -6.312501l3.875 0l0 -1.5l1.1875 0q0.5 0.0625 0.0625 0.375l0 1.125l3.5625 0l0 1.187501l-3.5625 0l0 1.4375l-1.25 0l0 -1.4375l-3.875 0l0 1.5625l-1.2500019 0l0 -1.5625l-3.5 0l0 -1.187501l3.5 0l0 -1.4375l1.1875019 0q0.5 0.0625 0.0625 0.375l0 1.0625zm20.125 0.875q-1.3125 3.625001 -2.9375 5.750001q-2.0625 2.6875 -4.9375 4.5l-1.5 -1.1875q2.8125 -1.4375 4.75 -3.75q2.0 -2.375 3.125 -6.562501l1.6875 0.75q0.4375 0.25 -0.1875 0.5zm15.625 10.500001q-3.6875 -2.5 -5.6875 -7.25l0 7.1875q0 1.0 -1.0 1.0l-1.5 0l-0.25 -1.1875l1.25 0q0.25 0 0.25 -0.25l0 -12.562501l1.1875 0q0.5 0.0625 0.0625 0.375l0 1.8125q0 1.375001 1.0625 3.250001q1.4375 -1.0 3.1875 -3.125001l1.125 1.125001q0.3125 0.5 -0.375 0.375q-1.5 1.375 -3.375 2.6875q1.8125 3.1875 4.8125 5.125l-0.75 1.4375zm-7.8125 -8.625q-1.0 5.9375 -5.1875 8.625l-0.6875 -1.3125q3.4375 -1.9375 4.5 -6.9375l-3.625 0l0 -1.1875l3.625 0l0.375 -0.5l1.0625 0.75q0.4375 0.25 -0.0625 0.5625zm30.1875 0.4375l4.9375 0l0 1.1875l-1.6875 0l0 8.0625l-1.25 0l0 -8.0625l-2.0 0l0 2.9375q0 3.625 -3.0 5.375l-0.8125 -1.125q2.5625 -1.3125 2.5625 -4.4375l0 -8.062501l1.1875 0.375q1.4375 -0.0625 3.75 -0.8125l0.625 1.0625q0.25 0.5 -0.4375 0.25q-2.3125 0.375 -3.875 0.5l0 2.750001zm-4.0625 -4.687501l1.0 0q0.5 0.0625 0.0625 0.375l0 1.75l1.1875 0l0 1.000001l-1.1875 0l0 5.9375l1.3125 0l0 1.0l-7.6875 0l0 -1.0l1.6875 0l0 -5.9375l-1.3125 0l0 -1.000001l1.3125 0l0 -2.125l1.0 0q0.5 0.0625 0.0625 0.375l0 1.75l2.5625 0l0 -2.125zm0.1875 10.312501q0.875 0.75 1.25 1.25l-1.0 0.8125q-0.3125 -0.5 -1.125 -1.3125l0.875 -0.75zm-0.1875 -7.1875l-2.5625 0l0 1.25l2.5625 0l0 -1.25zm0 2.25l-2.5625 0l0 1.25l2.5625 0l0 -1.25zm-2.5625 2.25l0 1.4375l2.5625 0l0 -1.4375l-2.5625 0zm-2.75 5.4375q1.4375 -1.125 2.25 -2.625l1.0625 0.625q0.375 0.375 -0.1875 0.375q-0.875 1.375 -2.25 2.625l-0.875 -1.0zm21.5625 -0.625q2.0 -0.6875 3.25 -1.9375q-1.375 -1.625 -1.9375 -3.625l-0.875 0l0 2.0q0 3.0625 -1.875 5.0625l-0.875 -1.25q1.5 -1.125 1.5 -3.8125l0 -7.000001l3.875 0l0 -2.0625l1.25 0q0.625 0.125 0 0.5l0 1.5625l3.0625 0l0.125 -0.25l1.3125 0.75q0.25 0.31250095 -0.25 0.37500095l-1.0 2.1875l-1.1875 -0.625l0.5 -1.25l-2.5625 0l0 2.625l1.9375 0l0.125 -0.3125l1.125 0.6875q0.25 0.25 -0.1875 0.375q-0.75 2.125 -2.25 4.0q1.1875 1.125 3.625 2.0l-0.5 1.4375q-2.625 -1.25 -4.0 -2.4375q-1.375 1.25 -3.625 2.375l-0.5625 -1.375zm-5.3125 0.1875q1.4375 -2.0 2.25 -4.125l1.125 0.6875q-0.8125 2.25 -2.0 4.25q0.1875 0.625 -0.25 0.3125l-1.125 -1.125zm2.8125 -9.4375q-0.8125 -1.000001 -1.875 -1.750001l0.9375 -1.0625q1.25 0.6875 1.9375 1.6875l-1.0 1.125001zm-1.75 0.9375q1.125 0.6875 2.0 1.75l-0.9375 1.0625q-0.875 -1.0 -1.9375 -1.75l0.875 -1.0625zm4.6875 1.5625l2.625 0l0 -2.625l-2.625 0l0 2.625zm2.125 1.1875q0.375 1.4375 1.625 2.75q1.1875 -1.5625 1.5625 -2.75l-3.1875 0zm18.6875 -2.8125q-1.1875 6.8125 -7.8125 9.75l-1.125 -1.1875q6.125 -2.5 7.375 -8.625l-5.0 0q-1.4375 2.375 -3.0 3.8125l-1.25 -0.8125q3.25 -2.9375 4.1875 -6.875001l1.4375 0.5q0.375 0.1875 -0.125 0.375q-0.25 0.8125 -0.6875 1.625l4.5 0l0.5625 -0.3125l1.125 1.125001q0.4375 0.4375 -0.1875 0.625zm0.375 -1.500001q-1.0 -1.4375 -1.9375 -2.1875l0.8125 -0.6875q1.0625 0.9375 2.0 2.1875l-0.875 0.6875zm1.8125 -0.75q-1.0 -1.25 -1.8125 -2.0l0.75 -0.75q0.9375 0.875 1.8125 2.0l-0.75 0.75zm10.625 9.000001q2.75 -1.0625 5.0625 -4.25l0.875 1.1875q-2.375 3.25 -6.0 4.6875l-0.5 0.25l-1.0 -0.75l0.125 -0.3125l0 -10.062501l1.3125 0q0.5625 0.125 0.125 0.5l0 8.750001zm-8.375 1.6875q3.125 -3.0 3.125 -7.4375l0 -2.812501l1.3125 0q0.5625 0.125 0.125 0.50000095l0 2.25q0 5.25 -3.3125 8.3125l-1.25 -0.8125zm15.75 -5.0l0 -1.375l13.9375 0l0 1.375l-13.9375 0zm26.625 -5.625001q0.5 0 0.8125 -0.3125q0.3125 -0.3125 0.3125 -0.8125q0 -0.5 -0.3125 -0.8125q-0.3125 -0.3125 -0.8125 -0.3125q-0.5 0 -0.8125 0.3125q-0.3125 0.3125 -0.3125 0.8125q0 0.5 0.3125 0.8125q0.3125 0.3125 0.8125 0.3125zm0 0.625q-0.75 0 -1.25 -0.5q-0.5 -0.5 -0.5 -1.25q0 -0.75 0.5 -1.25q0.5 -0.5 1.25 -0.5q0.75 0 1.25 0.5q0.5 0.5 0.5 1.25q0 0.75 -0.5 1.25q-0.5 0.5 -1.25 0.5zm-11.1875 0.81250095l0 -1.375001l9.25 0l1.625 1.187501q-0.3125 7.5625 -8.5625 9.875l-1.125 -1.375q7.8125 -1.8125 8.1875 -8.3125l-9.375 0z" fill-rule="nonzero"/></g></svg>